<?xml version="1.0" standalone="no"?><!-- Generator: Gravit.io --><svg xmlns="http://www.w3.org/2000/svg" xmlns:xlink="http://www.w3.org/1999/xlink" style="isolation:isolate" viewBox="0 0 32 32" width="32" height="32"><defs><clipPath id="_clipPath_mu5fwHJf3IotFCu5IO8TKpdqkbqkXxZn"><rect width="32" height="32"/></clipPath></defs><g clip-path="url(#_clipPath_mu5fwHJf3IotFCu5IO8TKpdqkbqkXxZn)"><path d=" M 12.659 20.683 L 19.34 20.683 L 20.953 11.268 L 10.883 11.268 L 12.659 20.683 Z " fill="none"/><path d=" M 1.039 1.613 C 0.736 1.609 0.447 1.739 0.249 1.968 C 0.051 2.198 -0.035 2.503 0.013 2.802 L 4.366 29.224 C 4.478 29.891 5.052 30.382 5.729 30.387 L 26.609 30.387 C 27.117 30.394 27.553 30.028 27.634 29.526 L 31.987 2.807 C 32.035 2.508 31.949 2.203 31.751 1.974 C 31.553 1.744 31.264 1.614 30.961 1.618 L 1.039 1.613 Z  M 19.366 20.709 L 12.701 20.709 L 10.897 11.281 L 20.98 11.281 L 19.366 20.709 Z " fill="rgb(38,132,255)"/><linearGradient id="_lgradient_0" x1="0" y1="0.5" x2="0.7883248046443064" y2="-0.11525929686800829" gradientTransform="matrix(25.75,0,0,19.091,4.826,11.268)" gradientUnits="userSpaceOnUse"><stop offset="48.788803509480836%" stop-opacity="1" style="stop-color:rgb(38,132,255)"/><stop offset="100%" stop-opacity="1" style="stop-color:rgb(0,55,176)"/></linearGradient><path d=" M 30.576 11.268 L 20.962 11.268 L 19.348 20.688 L 12.689 20.688 L 4.826 30.021 C 5.076 30.236 5.393 30.356 5.723 30.359 L 26.591 30.359 C 27.099 30.365 27.534 29.999 27.616 29.498 L 30.576 11.268 Z " fill="url(#_lgradient_0)"/></g></svg>