<?xml version="1.0" standalone="no"?><!-- Generator: Gravit.io --><svg xmlns="http://www.w3.org/2000/svg" xmlns:xlink="http://www.w3.org/1999/xlink" style="isolation:isolate" viewBox="0 0 32 32" width="32" height="32"><defs><clipPath id="_clipPath_jimwAc0HpEjxjlzQj10UqCSCjgQkvDmM"><rect width="32" height="32"/></clipPath></defs><g clip-path="url(#_clipPath_jimwAc0HpEjxjlzQj10UqCSCjgQkvDmM)"><g><g><g><path d=" M 16 30.739 L 16 30.739 L 21.892 12.605 L 10.108 12.605 L 16 30.739 L 16 30.739 Z " fill-rule="evenodd" fill="rgb(226,67,41)"/><path d=" M 16 30.739 L 10.108 12.605 L 1.85 12.605 L 16 30.739 Z " fill-rule="evenodd" fill="rgb(252,109,38)"/><path d=" M 1.85 12.605 L 1.85 12.605 L 0.06 18.115 C -0.104 18.618 0.075 19.169 0.503 19.479 L 16 30.739 L 1.85 12.605 Z " fill-rule="evenodd" fill="rgb(252,163,38)"/><path d=" M 1.85 12.605 L 10.108 12.605 L 6.559 1.683 C 6.377 1.121 5.581 1.121 5.399 1.683 L 1.85 12.605 Z " fill-rule="evenodd" fill="rgb(226,67,41)"/><path d=" M 16 30.739 L 21.892 12.605 L 30.15 12.605 L 16 30.739 Z " fill-rule="evenodd" fill="rgb(252,109,38)"/><path d=" M 30.15 12.605 L 30.15 12.605 L 31.94 18.115 C 32.104 18.618 31.925 19.169 31.497 19.479 L 16 30.739 L 30.15 12.605 Z " fill-rule="evenodd" fill="rgb(252,163,38)"/><path d=" M 30.15 12.605 L 21.892 12.605 L 25.441 1.683 C 25.623 1.121 26.419 1.121 26.601 1.683 L 30.15 12.605 Z " fill-rule="evenodd" fill="rgb(226,67,41)"/></g></g></g></g></svg>